<svg width="53" height="53" viewBox="0 0 53 53" fill="none" xmlns="http://www.w3.org/2000/svg">
<ellipse cx="26.3998" cy="26.4811" rx="25.7309" ry="25.7311" fill="url(#paint0_linear_238_3319)"/>
<path d="M16.7938 36.3753C20.1688 36.3753 24.6688 35.2503 24.6688 27.3753V18.3753C24.6688 16.9691 23.8183 16.1062 22.4188 16.1253H17.9188C16.5126 16.1253 15.6688 16.9691 15.6688 18.3438V25.1253C15.6688 26.5316 16.5126 27.3753 17.9188 27.3753C19.0438 27.3753 19.0438 27.3753 19.0438 28.5003V29.6253C19.0438 30.7503 17.9188 31.8753 16.7938 31.8753C15.6688 31.8753 15.6688 31.8843 15.6688 33.0352V35.2503C15.6688 36.3753 15.6688 36.3753 16.7938 36.3753Z" stroke="white" stroke-width="2.25" stroke-linecap="round" stroke-linejoin="round"/>
<path d="M30.2938 36.3753C33.6688 36.3753 38.1688 35.2503 38.1688 27.3753V18.3753C38.1688 16.9691 37.3172 16.1062 35.9188 16.1253H31.4188C30.0126 16.1253 29.1688 16.9691 29.1688 18.3438V25.1253C29.1688 26.5316 30.0126 27.3753 31.4188 27.3753H32.2626C32.2626 29.9066 32.5438 31.8753 29.1688 31.8753V35.2503C29.1688 36.3753 29.1688 36.3753 30.2938 36.3753Z" stroke="white" stroke-width="2.25" stroke-linecap="round" stroke-linejoin="round"/>
<defs>
<linearGradient id="paint0_linear_238_3319" x1="26.3998" y1="52.2122" x2="26.3998" y2="0.75" gradientUnits="userSpaceOnUse">
<stop stop-color="#79A6FF"/>
<stop offset="1" stop-color="#2F76FF"/>
</linearGradient>
</defs>
</svg>
